<?xml version="1.0" encoding="utf-8"?>
<!-- Generator: Adobe Illustrator 25.2.1, SVG Export Plug-In . SVG Version: 6.00 Build 0)  -->
<svg version="1.1" id="Layer_1" xmlns="http://www.w3.org/2000/svg" xmlns:xlink="http://www.w3.org/1999/xlink" x="0px" y="0px"
	 viewBox="0 0 600 600" style="enable-background:new 0 0 600 600;" xml:space="preserve">
<style type="text/css">
	.st0{fill:#FFFFFF;}
</style>
<path class="st0" d="M157.37,267.14c-8.94,0-17.16,4.9-21.42,12.76l-5.24,9.68l-0.61,1.13l-0.59,1.09l-15.82,29.24l-25.83-48.28
	h11.49l9.25,17.2l4.86,9.02l5.01-8.94l9.69-17.29h8.38c2.02-2.25,4.39-4.15,6.99-5.63h-18.67l-11.3,20.16l-10.84-20.16H78.47
	l35.2,65.78l19.59-36.21l3.25-6l0.61-1.13l3.77-6.96c0.2-0.38,0.42-0.75,0.65-1.11c2.51-3.97,6.4-6.82,10.85-8.05
	c1.21-0.34,2.47-0.56,3.75-0.64c0.43-0.03,0.86-0.04,1.29-0.04h51.29l-5.18,9.65H179.8l-1.59,2.98l-21.96,41.26h-11.64l19.26-35.77
	l4.47-8.3h-23.11c-1.32,2.09-3.21,5.63-3.21,5.63h16.9l-23.73,44.06h24.45l23.55-44.24h23.72l11.22-20.91H157.37z"/>
<rect x="233.89" y="267.09" class="st0" width="1.88" height="65.92"/>
<g>
	<path class="st0" d="M254.52,277.19c1.05,0,1.76-0.44,1.76-1.56v-1.51h1.15v1.74c0,1.51-1.16,2.39-2.97,2.39
		c-1.79,0-2.92-0.87-2.92-2.39v-6.54c0-1.51,1.16-2.39,2.98-2.39c1.77,0,2.9,0.87,2.9,2.39v1.74h-1.15v-1.51
		c0-1.04-0.7-1.56-1.76-1.56c-1.21,0-1.76,0.52-1.76,1.56v6.09C252.76,276.74,253.31,277.19,254.52,277.19z"/>
	<path class="st0" d="M265.67,269.47v6.24c0,1.61-1.13,2.54-3.09,2.54c-1.97,0-3.12-0.93-3.12-2.54v-6.24
		c0-1.61,1.15-2.54,3.12-2.54C264.54,266.93,265.67,267.86,265.67,269.47z M260.68,269.8v5.56c0,1.3,0.58,1.82,1.9,1.82
		c1.28,0,1.88-0.52,1.88-1.82v-5.56c0-1.3-0.6-1.82-1.88-1.82C261.26,267.98,260.68,268.5,260.68,269.8z"/>
	<path class="st0" d="M272.81,278.09h-4.97v-11.01h1.22v9.97h3.75V278.09z"/>
	<path class="st0" d="M279.16,278.09h-4.97v-11.01h1.22v9.97h3.75V278.09z"/>
	<path class="st0" d="M285.69,278.09h-5.06v-11.01h5.06v1.06h-3.84v3.73h2.94v1.05h-2.94v4.13h3.84V278.09z"/>
	<path class="st0" d="M292.72,278.09l-0.31-0.7c-0.46,0.55-1.22,0.86-2.17,0.86c-1.76,0-2.87-0.87-2.87-2.39v-6.54
		c0-1.51,1.18-2.39,3.03-2.39c1.8,0,2.97,0.87,2.97,2.39v1.74h-1.16v-1.51c0-1.04-0.72-1.56-1.8-1.56c-1.24,0-1.8,0.52-1.8,1.56
		v6.01c0,1.12,0.57,1.64,1.8,1.64c1.05,0,1.76-0.49,1.8-1.54v-1.91h-1.8v-1.06h2.97v5.41H292.72z"/>
	<path class="st0" d="M300.59,278.09h-5.06v-11.01h5.06v1.06h-3.84v3.73h2.94v1.05h-2.94v4.13h3.84V278.09z"/>
	<path class="st0" d="M311.48,269.47v6.24c0,1.61-1.13,2.54-3.09,2.54c-1.97,0-3.12-0.93-3.12-2.54v-6.24
		c0-1.61,1.15-2.54,3.12-2.54C310.35,266.93,311.48,267.86,311.48,269.47z M306.49,269.8v5.56c0,1.3,0.58,1.82,1.9,1.82
		c1.28,0,1.88-0.52,1.88-1.82v-5.56c0-1.3-0.6-1.82-1.88-1.82C307.07,267.98,306.49,268.5,306.49,269.8z"/>
	<path class="st0" d="M313.74,278.09v-11.01h5.06v1.06h-3.84v4.19h2.94v1.06h-2.94v4.71H313.74z"/>
	<path class="st0" d="M328.42,278.09h-5.06v-11.01h5.06v1.06h-3.84v3.73h2.94v1.05h-2.94v4.13h3.84V278.09z"/>
	<path class="st0" d="M330.22,278.09v-11.01h0.98l3.81,7.74l0.35,0.9l-0.03-0.86v-7.78h1.12v11.01h-0.98l-3.81-7.75l-0.37-0.93
		l0.05,0.83v7.86H330.22z"/>
	<path class="st0" d="M344.04,278.09l-0.31-0.7c-0.46,0.55-1.22,0.86-2.17,0.86c-1.76,0-2.88-0.87-2.88-2.39v-6.54
		c0-1.51,1.18-2.39,3.03-2.39c1.8,0,2.97,0.87,2.97,2.39v1.74h-1.16v-1.51c0-1.04-0.72-1.56-1.8-1.56c-1.24,0-1.8,0.52-1.8,1.56
		v6.01c0,1.12,0.57,1.64,1.8,1.64c1.06,0,1.76-0.49,1.8-1.54v-1.91h-1.8v-1.06h2.97v5.41H344.04z"/>
	<path class="st0" d="M346.84,278.09v-11.01h1.22v11.01H346.84z"/>
	<path class="st0" d="M350.42,278.09v-11.01h0.98l3.81,7.74l0.35,0.9l-0.03-0.86v-7.78h1.12v11.01h-0.98l-3.81-7.75l-0.37-0.93
		l0.05,0.83v7.86H350.42z"/>
	<path class="st0" d="M364.06,278.09H359v-11.01h5.06v1.06h-3.84v3.73h2.94v1.05h-2.94v4.13h3.84V278.09z"/>
	<path class="st0" d="M370.91,278.09h-5.06v-11.01h5.06v1.06h-3.84v3.73h2.94v1.05h-2.94v4.13h3.84V278.09z"/>
	<path class="st0" d="M372.71,278.09v-11.01h2.23c2.23,0,3.09,1.12,3.09,3v0.9c0,1.36-0.52,2.29-1.77,2.65l2.37,4.46h-1.35
		l-2.22-4.31h-1.13v4.31H372.71z M373.93,268.14v4.6h1.02c1.27,0,1.87-0.55,1.87-1.88v-0.72c0-1.39-0.6-2-1.82-2H373.93z"/>
	<path class="st0" d="M380.11,278.09v-11.01h1.22v11.01H380.11z"/>
	<path class="st0" d="M383.69,278.09v-11.01h0.98l3.81,7.74l0.35,0.9l-0.03-0.86v-7.78h1.12v11.01h-0.98l-3.81-7.75l-0.37-0.93
		l0.05,0.83v7.86H383.69z"/>
	<path class="st0" d="M397.51,278.09l-0.31-0.7c-0.46,0.55-1.22,0.86-2.17,0.86c-1.76,0-2.88-0.87-2.88-2.39v-6.54
		c0-1.51,1.18-2.39,3.03-2.39c1.8,0,2.97,0.87,2.97,2.39v1.74h-1.16v-1.51c0-1.04-0.72-1.56-1.8-1.56c-1.24,0-1.8,0.52-1.8,1.56
		v6.01c0,1.12,0.57,1.64,1.8,1.64c1.06,0,1.76-0.49,1.8-1.54v-1.91h-1.8v-1.06h2.97v5.41H397.51z"/>
</g>
<g>
	<path class="st0" d="M251.54,297.27V283.3h2.19v6.38l3.51-6.38h2.35l-3.74,6.81l3.96,7.16h-2.46l-3.61-6.61v6.61H251.54z"/>
	<path class="st0" d="M267.93,297.27h-6.9V283.3h6.9v1.88h-4.71v3.96h3.63v1.88h-3.63v4.36h4.71V297.27z"/>
	<path class="st0" d="M277.74,283.3l-3.3,13.96h-2.37l-3.3-13.96h2.17l2.31,10.82l2.31-10.82H277.74z"/>
	<path class="st0" d="M279.2,297.27V283.3h2.19v13.96H279.2z"/>
	<path class="st0" d="M283.76,297.27V283.3h1.78l4.34,8.67l0.43,1.05l-0.04-1.09v-8.63h1.98v13.96h-1.8l-4.31-8.63l-0.47-1.18
		l0.04,1.11v8.71H283.76z"/>
	<path class="st0" d="M299.69,297.27v-12.08h-2.85v-1.88h7.87v1.88h-2.83v12.08H299.69z"/>
	<path class="st0" d="M305.76,297.27v-2.73h2.27v2.73H305.76z"/>
	<path class="st0" d="M317.07,295.56c1.05,0,1.73-0.45,1.73-1.53v-1.8h2.08v2.21c0,1.92-1.53,3.03-3.94,3.03
		c-2.33,0-3.8-1.11-3.8-3.03v-8.3c0-1.92,1.51-3.03,3.94-3.03c2.33,0,3.8,1.11,3.8,3.03v2.21h-2.08v-1.8c0-1.05-0.68-1.53-1.73-1.53
		c-1.18,0-1.75,0.48-1.75,1.53v7.49C315.32,295.11,315.89,295.56,317.07,295.56z"/>
	<path class="st0" d="M322.93,297.27V283.3h3.28c2.97,0,4.09,1.42,4.09,3.8v1.49c0,1.61-0.6,2.73-2.09,3.22l2.91,5.45h-2.4
		l-2.6-5.18h-0.99v5.18H322.93z M325.12,285.18v5.02h1.14c1.2,0,1.84-0.58,1.84-1.94v-1.05c0-1.4-0.64-2.04-1.82-2.04H325.12z"/>
	<path class="st0" d="M340.46,286.33v7.91c0,2.04-1.57,3.22-4.15,3.22c-2.58,0-4.13-1.18-4.13-3.22v-7.91
		c0-2.04,1.55-3.22,4.13-3.22C338.89,283.11,340.46,284.29,340.46,286.33z M334.37,286.81v6.94c0,1.28,0.62,1.8,1.94,1.8
		c1.32,0,1.94-0.52,1.94-1.8v-6.94c0-1.28-0.62-1.8-1.94-1.8C335,285.01,334.37,285.53,334.37,286.81z"/>
	<path class="st0" d="M342.7,297.27V283.3h6.9v1.88h-4.71v4.54h3.63v1.88h-3.63v5.66H342.7z"/>
	<path class="st0" d="M352.92,297.27v-12.08h-2.85v-1.88h7.87v1.88h-2.83v12.08H352.92z"/>
	<path class="st0" d="M367.47,286.33v7.91c0,2.04-1.57,3.22-4.15,3.22c-2.58,0-4.13-1.18-4.13-3.22v-7.91
		c0-2.04,1.55-3.22,4.13-3.22C365.9,283.11,367.47,284.29,367.47,286.33z M361.38,286.81v6.94c0,1.28,0.62,1.8,1.94,1.8
		c1.32,0,1.94-0.52,1.94-1.8v-6.94c0-1.28-0.62-1.8-1.94-1.8C362,285.01,361.38,285.53,361.38,286.81z"/>
	<path class="st0" d="M369.7,297.27V283.3h1.78l4.34,8.67l0.43,1.05l-0.04-1.09v-8.63h1.98v13.96h-1.8l-4.31-8.63l-0.47-1.18
		l0.04,1.11v8.71H369.7z"/>
	<path class="st0" d="M383.77,283.3h3.53c3.3,0,4.56,1.59,4.56,4.5v4.96c0,3.06-1.28,4.5-4.5,4.5h-3.59V283.3z M385.96,285.2v10.16
		h1.4c1.51,0,2.42-0.81,2.42-2.7v-4.77c0-1.88-0.85-2.7-2.48-2.7H385.96z"/>
	<path class="st0" d="M400.91,297.27h-6.9V283.3h6.9v1.88h-4.71v3.96h3.63v1.88h-3.63v4.36h4.71V297.27z"/>
	<path class="st0" d="M402.68,297.27V283.3h3.53c2.95,0,4.07,1.42,4.07,3.8v1.49c0,2.19-1.12,3.49-4.07,3.49h-1.34v5.18H402.68z
		 M404.87,285.18v5.02h1.38c1.22,0,1.84-0.58,1.84-1.94v-1.05c0-1.4-0.62-2.04-1.8-2.04H404.87z"/>
	<path class="st0" d="M410.89,297.27l3.47-13.96h2.58l3.45,13.96h-2.19l-0.68-3.03h-3.76l-0.68,3.03H410.89z M414.21,292.24h2.87
		l-1.42-6.4L414.21,292.24z"/>
	<path class="st0" d="M421.64,297.27V283.3h3.28c2.97,0,4.09,1.42,4.09,3.8v1.49c0,1.61-0.6,2.73-2.09,3.22l2.91,5.45h-2.4
		l-2.6-5.18h-0.99v5.18H421.64z M423.83,285.18v5.02h1.14c1.2,0,1.84-0.58,1.84-1.94v-1.05c0-1.4-0.64-2.04-1.82-2.04H423.83z"/>
	<path class="st0" d="M432.89,297.27v-12.08h-2.85v-1.88h7.87v1.88h-2.83v12.08H432.89z"/>
	<path class="st0" d="M443.97,292.73l-2.7-5.7l0.08,1.42v8.82h-2.06V283.3h2.33l3.1,6.67l3.12-6.67h2.33v13.96h-2.08v-8.82
		l0.08-1.38l-2.7,5.66H443.97z"/>
	<path class="st0" d="M459.45,297.27h-6.9V283.3h6.9v1.88h-4.71v3.96h3.63v1.88h-3.63v4.36h4.71V297.27z"/>
	<path class="st0" d="M461.21,297.27V283.3H463l4.34,8.67l0.43,1.05l-0.04-1.09v-8.63h1.98v13.96h-1.8l-4.31-8.63l-0.47-1.18
		l0.04,1.11v8.71H461.21z"/>
	<path class="st0" d="M473.94,297.27v-12.08h-2.85v-1.88h7.87v1.88h-2.83v12.08H473.94z"/>
	<path class="st0" d="M491.69,286.33v7.91c0,2.04-1.57,3.22-4.15,3.22c-2.58,0-4.13-1.18-4.13-3.22v-7.91
		c0-2.04,1.55-3.22,4.13-3.22C490.12,283.11,491.69,284.29,491.69,286.33z M485.6,286.81v6.94c0,1.28,0.62,1.8,1.94,1.8
		c1.32,0,1.94-0.52,1.94-1.8v-6.94c0-1.28-0.62-1.8-1.94-1.8C486.22,285.01,485.6,285.53,485.6,286.81z"/>
	<path class="st0" d="M493.92,297.27V283.3h6.9v1.88h-4.71v4.54h3.63v1.88h-3.63v5.66H493.92z"/>
</g>
<g>
	<path class="st0" d="M251.54,316.42l3.47-13.96h2.58l3.45,13.96h-2.19l-0.68-3.03h-3.76l-0.68,3.03H251.54z M254.85,311.4h2.87
		l-1.42-6.4L254.85,311.4z"/>
	<path class="st0" d="M269.19,316.42h-6.9v-13.96h6.9v1.88h-4.71v3.96h3.63v1.88h-3.63v4.36h4.71V316.42z"/>
	<path class="st0" d="M270.96,316.42v-13.96h3.28c2.97,0,4.09,1.42,4.09,3.8v1.49c0,1.61-0.6,2.73-2.09,3.22l2.91,5.45h-2.4
		l-2.6-5.18h-0.99v5.18H270.96z M273.15,304.34v5.02h1.14c1.2,0,1.84-0.58,1.84-1.94v-1.05c0-1.4-0.64-2.04-1.82-2.04H273.15z"/>
	<path class="st0" d="M288.49,305.48v7.91c0,2.04-1.57,3.22-4.15,3.22c-2.58,0-4.13-1.18-4.13-3.22v-7.91
		c0-2.04,1.55-3.22,4.13-3.22C286.92,302.26,288.49,303.45,288.49,305.48z M282.4,305.97v6.94c0,1.28,0.62,1.8,1.94,1.8
		s1.94-0.52,1.94-1.8v-6.94c0-1.28-0.62-1.8-1.94-1.8S282.4,304.69,282.4,305.97z"/>
	<path class="st0" d="M297.96,312.97c0,2.6-1.26,3.65-3.53,3.65h-0.83c-2.13,0-3.32-0.79-3.32-2.83v-1.73h2.11v1.11
		c0,1.32,0.41,1.59,1.28,1.59h0.68c0.87,0,1.45-0.17,1.45-1.69v-1.01c0-0.81-0.31-1.38-1.32-1.61l-1.44-0.35
		c-1.78-0.43-2.6-1.24-2.6-3.67v-0.79c0-2.23,1.2-3.38,3.35-3.38h0.33c2.13,0,3.45,1.03,3.45,2.83v1.47h-2.11v-0.97
		c0-1.07-0.45-1.47-1.3-1.47h-0.33c-0.87,0-1.24,0.37-1.24,1.67v0.54c0,1.2,0.19,1.47,1.14,1.73l1.3,0.35
		c2.27,0.58,2.91,1.49,2.91,3.74V312.97z"/>
	<path class="st0" d="M299.8,316.42v-13.96h3.53c2.95,0,4.07,1.42,4.07,3.8v1.49c0,2.19-1.12,3.49-4.07,3.49H302v5.18H299.8z
		 M302,304.34v5.02h1.38c1.22,0,1.84-0.58,1.84-1.94v-1.05c0-1.4-0.62-2.04-1.8-2.04H302z"/>
	<path class="st0" d="M308.01,316.42l3.47-13.96h2.58l3.45,13.96h-2.19l-0.68-3.03h-3.76l-0.68,3.03H308.01z M311.33,311.4h2.87
		l-1.42-6.4L311.33,311.4z"/>
	<path class="st0" d="M322.56,314.71c1.05,0,1.73-0.45,1.73-1.53v-1.8h2.08v2.21c0,1.92-1.53,3.03-3.94,3.03
		c-2.33,0-3.8-1.11-3.8-3.03v-8.3c0-1.92,1.51-3.03,3.94-3.03c2.33,0,3.8,1.11,3.8,3.03v2.21h-2.08v-1.8c0-1.05-0.68-1.53-1.73-1.53
		c-1.18,0-1.75,0.48-1.75,1.53v7.49C320.81,314.27,321.38,314.71,322.56,314.71z"/>
	<path class="st0" d="M335.32,316.42h-6.9v-13.96h6.9v1.88h-4.71v3.96h3.63v1.88h-3.63v4.36h4.71V316.42z"/>
	<path class="st0" d="M339.17,316.42l3.47-13.96h2.58l3.45,13.96h-2.19l-0.68-3.03h-3.76l-0.68,3.03H339.17z M342.48,311.4h2.87
		l-1.42-6.4L342.48,311.4z"/>
	<path class="st0" d="M349.91,316.42v-13.96h1.78l4.34,8.67l0.43,1.05l-0.04-1.09v-8.63h1.98v13.96h-1.8l-4.31-8.63l-0.47-1.18
		l0.04,1.11v8.71H349.91z"/>
	<path class="st0" d="M360.78,302.46h3.53c3.3,0,4.56,1.59,4.56,4.5v4.96c0,3.06-1.28,4.5-4.5,4.5h-3.59V302.46z M362.97,304.36
		v10.16h1.4c1.51,0,2.42-0.82,2.42-2.7v-4.77c0-1.88-0.85-2.7-2.48-2.7H362.97z"/>
	<path class="st0" d="M382.37,305.48v7.91c0,2.04-1.57,3.22-4.15,3.22c-2.58,0-4.13-1.18-4.13-3.22v-7.91
		c0-2.04,1.55-3.22,4.13-3.22C380.8,302.26,382.37,303.45,382.37,305.48z M376.28,305.97v6.94c0,1.28,0.62,1.8,1.94,1.8
		c1.32,0,1.94-0.52,1.94-1.8v-6.94c0-1.28-0.62-1.8-1.94-1.8C376.9,304.16,376.28,304.69,376.28,305.97z"/>
	<path class="st0" d="M388.4,314.71c1.05,0,1.73-0.45,1.73-1.53v-1.8h2.08v2.21c0,1.92-1.53,3.03-3.94,3.03
		c-2.33,0-3.8-1.11-3.8-3.03v-8.3c0-1.92,1.51-3.03,3.94-3.03c2.33,0,3.8,1.11,3.8,3.03v2.21h-2.08v-1.8c0-1.05-0.68-1.53-1.73-1.53
		c-1.18,0-1.75,0.48-1.75,1.53v7.49C386.66,314.27,387.22,314.71,388.4,314.71z"/>
	<path class="st0" d="M401.17,316.42h-6.9v-13.96h6.9v1.88h-4.71v3.96h3.63v1.88h-3.63v4.36h4.71V316.42z"/>
	<path class="st0" d="M401.81,316.42l3.47-13.96h2.58l3.45,13.96h-2.19l-0.68-3.03h-3.76l-0.68,3.03H401.81z M405.13,311.4H408
		l-1.42-6.4L405.13,311.4z"/>
	<path class="st0" d="M412.56,316.42v-13.96h1.78l4.34,8.67l0.43,1.05l-0.04-1.09v-8.63h1.98v13.96h-1.8l-4.31-8.63l-0.47-1.18
		l0.04,1.11v8.71H412.56z"/>
	<path class="st0" d="M433.53,316.42h-6.9v-13.96h6.9v1.88h-4.71v3.96h3.63v1.88h-3.63v4.36h4.71V316.42z"/>
	<path class="st0" d="M435.29,316.42v-13.96h1.78l4.34,8.67l0.43,1.05l-0.04-1.09v-8.63h1.98v13.96h-1.8l-4.31-8.63l-0.46-1.18
		l0.04,1.11v8.71H435.29z"/>
	<path class="st0" d="M452.85,316.42l-0.43-0.78c-0.6,0.64-1.55,0.97-2.71,0.97c-2.27,0-3.69-1.11-3.69-3.03v-8.3
		c0-1.92,1.57-3.03,4.05-3.03c2.39,0,3.92,1.11,3.92,3.03v2.21h-2.09v-1.8c0-1.05-0.7-1.53-1.82-1.53c-1.28,0-1.86,0.48-1.86,1.53
		v7.43c0,1.11,0.58,1.59,1.86,1.59c1.12,0,1.82-0.48,1.82-1.59v-2h-1.82v-1.88H454v7.18H452.85z"/>
	<path class="st0" d="M456.11,316.42v-13.96h2.19v13.96H456.11z"/>
	<path class="st0" d="M460.67,316.42v-13.96h1.78l4.34,8.67l0.43,1.05l-0.04-1.09v-8.63h1.98v13.96h-1.8l-4.31-8.63l-0.46-1.18
		l0.04,1.11v8.71H460.67z"/>
	<path class="st0" d="M478.44,316.42h-6.9v-13.96h6.9v1.88h-4.71v3.96h3.63v1.88h-3.63v4.36h4.71V316.42z"/>
	<path class="st0" d="M487.11,316.42h-6.9v-13.96h6.9v1.88h-4.71v3.96h3.63v1.88h-3.63v4.36h4.71V316.42z"/>
	<path class="st0" d="M488.88,316.42v-13.96h3.28c2.97,0,4.09,1.42,4.09,3.8v1.49c0,1.61-0.6,2.73-2.09,3.22l2.91,5.45h-2.4
		l-2.6-5.18h-0.99v5.18H488.88z M491.07,304.34v5.02h1.14c1.2,0,1.84-0.58,1.84-1.94v-1.05c0-1.4-0.64-2.04-1.82-2.04H491.07z"/>
	<path class="st0" d="M498.27,316.42v-13.96h2.19v13.96H498.27z"/>
	<path class="st0" d="M502.83,316.42v-13.96h1.78l4.34,8.67l0.43,1.05l-0.04-1.09v-8.63h1.98v13.96h-1.8l-4.31-8.63l-0.46-1.18
		l0.04,1.11v8.71H502.83z"/>
	<path class="st0" d="M520.38,316.42l-0.43-0.78c-0.6,0.64-1.55,0.97-2.71,0.97c-2.27,0-3.69-1.11-3.69-3.03v-8.3
		c0-1.92,1.57-3.03,4.05-3.03c2.39,0,3.92,1.11,3.92,3.03v2.21h-2.09v-1.8c0-1.05-0.7-1.53-1.82-1.53c-1.28,0-1.86,0.48-1.86,1.53
		v7.43c0,1.11,0.58,1.59,1.86,1.59c1.12,0,1.82-0.48,1.82-1.59v-2h-1.82v-1.88h3.92v7.18H520.38z"/>
</g>
<g>
	<g>
		<polygon class="st0" points="332.94,323.65 332.94,321.66 341.66,321.66 341.66,323.65 338.34,323.65 338.34,332.96 
			336.27,332.96 336.27,323.65 		"/>
		<polygon class="st0" points="350.64,332.96 343.39,332.96 343.39,321.67 350.64,321.67 350.64,323.64 345.46,323.64 
			345.46,326.28 349.66,326.28 349.66,328.25 345.46,328.25 345.46,330.98 350.64,330.98 		"/>
		<path class="st0" d="M354.07,327.31c0,0.51,0.1,0.99,0.3,1.44c0.2,0.45,0.46,0.84,0.8,1.17c0.34,0.33,0.73,0.6,1.18,0.79
			c0.45,0.2,0.93,0.29,1.44,0.29c0.39,0,0.77-0.06,1.11-0.18c0.35-0.12,0.67-0.28,0.97-0.48c0.12-0.07,0.24-0.13,0.37-0.18
			c0.14-0.04,0.27-0.06,0.42-0.06c0.24,0,0.44,0.04,0.6,0.12c0.16,0.07,0.32,0.18,0.46,0.32l0.48,0.48
			c-0.29,0.32-0.61,0.6-0.95,0.85c-0.34,0.25-0.7,0.47-1.08,0.65c-0.38,0.18-0.77,0.31-1.17,0.41c-0.4,0.1-0.81,0.14-1.23,0.14
			c-0.8,0-1.55-0.15-2.25-0.45c-0.7-0.3-1.31-0.71-1.84-1.24c-0.52-0.52-0.94-1.13-1.24-1.83c-0.3-0.7-0.45-1.45-0.45-2.25
			c0-0.53,0.07-1.04,0.2-1.53c0.14-0.49,0.33-0.95,0.58-1.37c0.25-0.43,0.55-0.82,0.91-1.17c0.35-0.35,0.74-0.65,1.17-0.9
			c0.43-0.25,0.89-0.44,1.38-0.58c0.5-0.14,1.01-0.2,1.54-0.2c0.42,0,0.83,0.05,1.23,0.14c0.4,0.1,0.79,0.23,1.17,0.41
			c0.37,0.18,0.73,0.39,1.08,0.65c0.34,0.25,0.66,0.54,0.95,0.85l-0.48,0.48c-0.14,0.14-0.29,0.24-0.47,0.33
			c-0.18,0.08-0.37,0.12-0.59,0.12c-0.29,0-0.55-0.08-0.8-0.25c-0.3-0.2-0.63-0.37-0.98-0.48c-0.35-0.12-0.72-0.17-1.11-0.17
			c-0.51,0-0.99,0.1-1.44,0.29c-0.45,0.19-0.84,0.46-1.18,0.79c-0.34,0.33-0.61,0.72-0.8,1.17
			C354.17,326.32,354.07,326.8,354.07,327.31"/>
		<polygon class="st0" points="374.18,332.96 372.1,332.96 372.1,328.28 366.56,328.28 366.56,332.96 364.49,332.96 364.49,321.67 
			366.56,321.67 366.56,326.3 372.1,326.3 372.1,321.67 374.18,321.67 		"/>
		<path class="st0" d="M257.57,329.53c0,0,1.02-2.34,1.52-3.5c0.51-1.16,1.02-2.33,1.53-3.5c0.12-0.27,0.3-0.48,0.54-0.63
			c0.24-0.15,0.51-0.23,0.81-0.23h1.28l-4.93,11.29h-1.87l-4.93-11.29h1.28c0.14,0,0.28,0.02,0.42,0.06
			c0.14,0.04,0.27,0.1,0.39,0.18s0.23,0.17,0.32,0.28c0.1,0.1,0.17,0.22,0.22,0.35l3.05,6.99l0.18,0.41L257.57,329.53z"/>
		<rect x="265" y="321.67" class="st0" width="2.07" height="11.29"/>
		<path class="st0" d="M290.28,326.92v4.74c-0.28,0.28-0.59,0.52-0.92,0.7c-0.33,0.18-0.68,0.33-1.04,0.44
			c-0.36,0.11-0.74,0.18-1.13,0.22c-0.39,0.04-0.79,0.06-1.19,0.06c-0.8,0-1.55-0.15-2.25-0.45c-0.7-0.3-1.31-0.71-1.84-1.23
			c-0.52-0.52-0.94-1.13-1.24-1.83c-0.3-0.7-0.45-1.45-0.45-2.25c0-0.53,0.07-1.04,0.2-1.53c0.14-0.49,0.33-0.95,0.58-1.37
			c0.25-0.43,0.55-0.81,0.9-1.17c0.35-0.35,0.74-0.65,1.17-0.9c0.43-0.25,0.89-0.44,1.38-0.58c0.49-0.14,1-0.2,1.53-0.2
			c0.42,0,0.83,0.05,1.24,0.14c0.41,0.09,0.79,0.23,1.17,0.41c0.37,0.18,0.73,0.39,1.07,0.65c0.34,0.25,0.66,0.54,0.95,0.85
			l-0.47,0.48c-0.15,0.15-0.31,0.27-0.48,0.34c-0.17,0.07-0.37,0.11-0.59,0.11c-0.29,0-0.56-0.08-0.8-0.25
			c-0.3-0.2-0.62-0.37-0.97-0.48c-0.35-0.12-0.72-0.17-1.12-0.17c-0.5,0-0.98,0.1-1.43,0.29c-0.45,0.19-0.85,0.46-1.18,0.79
			c-0.34,0.33-0.6,0.73-0.8,1.17c-0.2,0.45-0.3,0.92-0.3,1.43c0,0.52,0.1,1.01,0.31,1.45s0.48,0.84,0.83,1.17
			c0.35,0.33,0.75,0.59,1.21,0.78c0.46,0.19,0.94,0.28,1.45,0.28c0.25-0.01,0.5-0.03,0.75-0.06c0.22-0.03,0.45-0.08,0.69-0.15
			c0.24-0.07,0.47-0.17,0.68-0.29v-1.59c-0.22-0.01-0.44-0.01-0.65-0.01c-0.21,0-0.4-0.04-0.57-0.12c-0.17-0.08-0.3-0.21-0.4-0.4
			c-0.1-0.19-0.15-0.46-0.15-0.83v-0.63H290.28z"/>
		<rect x="293.61" y="321.67" class="st0" width="2.07" height="11.29"/>
		<path class="st0" d="M301.16,324.51v8.45h-2.06v-11.29h1.82c0.25,0,0.48,0.04,0.67,0.11c0.19,0.07,0.34,0.19,0.45,0.34
			c0.79,1.12,5.02,7.1,5.02,7.1v-7.55h2.06v11.29h-1.91L301.16,324.51z"/>
		<rect x="312.53" y="321.67" class="st0" width="2.07" height="11.29"/>
		<path class="st0" d="M323.14,321.67h-1.87l-4.93,11.29h1.28c0.14,0,0.28-0.02,0.42-0.06c0.14-0.04,0.27-0.1,0.39-0.18
			c0.12-0.08,0.23-0.17,0.32-0.27c0.1-0.1,0.17-0.22,0.22-0.35l0.66-1.53h0l1.19-2.75h0.01l1.36-3.16l1.65,3.83h-0.94
			c-0.7,0-1.34,0.42-1.62,1.06l-0.44,1.01h3.91l0.67,1.53c0.12,0.27,0.3,0.48,0.54,0.63c0.24,0.15,0.51,0.23,0.8,0.23h1.28
			L323.14,321.67z"/>
		<path class="st0" d="M272.55,332.96h-2.06v-11.29h4.24c0.55,0,1.04,0.1,1.48,0.31c0.44,0.2,0.82,0.48,1.14,0.81
			c0.32,0.34,0.56,0.72,0.73,1.15c0.17,0.43,0.26,0.88,0.26,1.33c0,0.33-0.04,0.65-0.13,0.97c-0.09,0.31-0.22,0.61-0.39,0.89
			c-0.17,0.28-0.39,0.53-0.64,0.77c-0.25,0.23-0.54,0.43-0.87,0.59c0.55,0.75,1.1,1.5,1.64,2.23c0.55,0.74,1.1,1.48,1.66,2.23h-1.62
			c-0.11,0-0.24-0.02-0.39-0.07c-0.15-0.05-0.3-0.12-0.46-0.22c-0.16-0.1-0.33-0.23-0.5-0.4c-0.17-0.16-0.34-0.36-0.5-0.6
			l-2.06-2.77h-1.54V332.96z M274.78,326.82c0.2,0,0.39-0.04,0.57-0.13c0.18-0.08,0.34-0.2,0.47-0.34c0.14-0.14,0.24-0.31,0.32-0.49
			c0.08-0.19,0.12-0.38,0.12-0.58c0-0.21-0.04-0.4-0.12-0.59c-0.08-0.19-0.18-0.35-0.32-0.49c-0.13-0.14-0.29-0.26-0.47-0.34
			c-0.18-0.08-0.37-0.13-0.57-0.13h-2.24v3.08H274.78z"/>
	</g>
	<g>
		<path class="st0" d="M376.25,330.89c0.57,0,1.04,0.47,1.04,1.04c0,0.58-0.47,1.04-1.04,1.04c-0.58,0-1.04-0.46-1.04-1.04
			C375.22,331.35,375.68,330.89,376.25,330.89z M376.25,332.85c0.51,0,0.92-0.41,0.92-0.92c0-0.51-0.41-0.92-0.92-0.92
			c-0.51,0-0.93,0.41-0.93,0.92C375.33,332.44,375.74,332.85,376.25,332.85z M376.43,332.02l0.26,0.39c0.02,0.03,0,0.05-0.03,0.05
			h-0.14c-0.03,0-0.05-0.01-0.06-0.03l-0.25-0.38h-0.12v0.38c0,0.03-0.01,0.03-0.04,0.03h-0.14c-0.03,0-0.04-0.01-0.04-0.03v-0.98
			c0-0.03,0.01-0.03,0.04-0.03h0.37c0.17,0,0.38,0.07,0.38,0.31C376.65,331.89,376.55,331.98,376.43,332.02z M376.27,331.85
			c0.11,0,0.17-0.04,0.17-0.14c0-0.09-0.05-0.13-0.17-0.13h-0.18v0.27H376.27z"/>
	</g>
</g>
</svg>
